<svg xmlns="http://www.w3.org/2000/svg" viewBox="0 0 954.17 198"><defs><style>.cls-1{fill:#220e2c;}.cls-2{fill:#3c194b;}.cls-3{fill:#2b1037;}.cls-4{fill:#721c54;}.cls-5{fill:#501648;}.cls-6{fill:#21082c;}</style></defs><g id="Layer_2" data-name="Layer 2"><g id="Layer_1-2" data-name="Layer 1"><polygon class="cls-1" points="127.76 0 0 148.01 42.74 198 169.59 49.6 127.76 0"/><polygon class="cls-2" points="42.74 198 126.85 198 169.59 148.01 0 148.01 42.74 198"/><polygon class="cls-3" points="41.17 148.01 169.59 148.01 126.85 198 41.17 148.01"/><polygon class="cls-2" points="169.59 49.6 0 49.6 41.83 0 127.76 0 169.59 49.6"/><polygon class="cls-3" points="128.42 49.6 0 49.6 41.83 0 128.42 49.6"/><polygon class="cls-4" points="41.83 0 169.59 148.01 126.85 198 0 49.6 41.83 0"/><polygon class="cls-5" points="84.8 148.8 127.33 99.04 84.8 49.77 42.27 99.04 84.8 148.8"/><polygon class="cls-6" points="804.45 1.53 783 1.53 765.4 29.58 777.37 47.46 804.45 1.53"/><polygon class="cls-6" points="746.75 1.61 728.6 1.61 728.6 88.24 746.75 59.31 746.75 1.61"/><polygon class="cls-4" points="765.4 29.58 746.75 59.31 728.6 88.24 753.39 88.12 766.89 65.23 783 88.12 804.45 88.12 765.4 29.58 765.4 29.58"/><path class="cls-6" d="M252.23,0q18.48,0,30.24,9.06l-9.29,14.82a32.94,32.94,0,0,0-21.06-7.53q-12.36,0-12.36,9.42a6.74,6.74,0,0,0,3.36,5.94q3.34,2.17,12.88,3.94,16.23,3.42,22.83,9.59t6.58,16.53q0,12.58-8.76,20.18t-23.94,7.59q-20.13,0-33.54-11.53l9.77-15A31.52,31.52,0,0,0,240,70.42a34.71,34.71,0,0,0,13.29,2.76q6.82,0,10.53-2.53a8.2,8.2,0,0,0,3.71-7.23,7.15,7.15,0,0,0-3.65-6.24q-3.64-2.35-13.06-4.12-16-3.41-22.53-9.88t-6.53-16.59q0-11.76,8.36-19.18T252.23,0Z"/><path class="cls-6" d="M366.85,1.53,341.32,43.06l31.42,45H351.21l-20-29L312.73,88H299.08V1.53h18V52l28.7-50.47Z"/><path class="cls-6" d="M457.76,1.53,426.34,52.6V88H408.46V52.94L376.81,1.53h20.82L417.29,35l19.64-33.5Z"/><path class="cls-6" d="M502.44,1.53q12.94,0,21.83,7.53t8.88,20.47a26.79,26.79,0,0,1-4.29,15.24,27,27,0,0,1-11.59,9.7L537.39,88H516.44L498.3,57.53H486.44V88H468.56V1.53ZM500.8,17.06H486.44V42H500.8q6.46,0,10.29-3.23t3.82-9.24q0-5.88-3.82-9.18T500.8,17.06Z"/><path class="cls-6" d="M587.61,0q19.07,0,31.77,12.77T632.09,45q0,19.29-12.71,31.94T587.61,89.54q-19.17,0-31.76-12.65T543.26,45q0-19.53,12.59-32.24T587.61,0ZM606.5,24.35q-7.37-8-18.89-8t-18.88,8q-7.35,8-7.35,20.6,0,12.35,7.35,20.29t18.88,7.94q11.53,0,18.89-7.94T613.85,45Q613.85,32.35,606.5,24.35Z"/><path class="cls-6" d="M686.23,0a44,44,0,0,1,17.42,3.18,43.56,43.56,0,0,1,13.88,9.76L706.23,26q-8.24-9.64-20-9.65t-19,8Q660,32.24,660,44.71t7.24,20.47q7.23,8,19,8,12,0,20.24-9.88l11.18,13.06q-12,13.19-31.42,13.18T654.35,76.77Q641.87,64,641.88,44.71t12.47-32Q666.82,0,686.23,0Z"/><polygon class="cls-6" points="814.32 1.53 814.32 88.01 871.15 88.01 871.15 71.65 832.32 71.65 832.32 51.77 865.15 51.77 865.15 36.59 832.32 36.59 832.32 17.88 908.16 17.3 908.16 88.01 926.05 88.01 926.05 17.3 954.17 17.3 954.17 1.53 814.32 1.53"/><path class="cls-6" d="M252.23,108.46q18.48,0,30.24,9.06l-9.29,14.83a32.89,32.89,0,0,0-21.06-7.53q-12.36,0-12.36,9.41a6.74,6.74,0,0,0,3.36,5.94q3.34,2.18,12.88,3.94,16.23,3.42,22.83,9.59t6.58,16.53q0,12.6-8.76,20.18T252.71,198q-20.13,0-33.54-11.53l9.77-14.94A31.5,31.5,0,0,0,240,178.88a34.73,34.73,0,0,0,13.29,2.77q6.82,0,10.53-2.53a8.23,8.23,0,0,0,3.71-7.24,7.15,7.15,0,0,0-3.65-6.24c-2.43-1.56-6.78-2.94-13.06-4.11q-16-3.42-22.53-9.89t-6.53-16.59q0-11.76,8.36-19.17T252.23,108.46Z"/><path class="cls-6" d="M426.19,110v54.24q0,8-4,12.71t-11.41,4.71q-7.54,0-11.42-4.71t-3.88-12.71V110H292.58v15.77h28v70.71h17.88V125.76h39v39.65q0,15.06,8.65,23.82T410.78,198q16,0,24.64-8.77t8.65-23.82V110Z"/><path class="cls-6" d="M490.06,110q22.24,0,34.77,11.42t12.53,31.76q0,20.47-12.47,31.89t-34.83,11.41H462.53V110Zm-.59,16.47h-8.94v53.66h8.94q14.47,0,22.06-7t7.59-19.83q0-12.94-7.59-19.88T489.47,126.46Z"/><path class="cls-6" d="M569.8,110v86.48h-18V110Z"/><path class="cls-6" d="M628.9,108.46q19.05,0,31.76,12.77t12.71,32.18q0,19.29-12.71,31.94T628.9,198q-19.18,0-31.77-12.65t-12.59-31.94q0-19.53,12.59-32.24T628.9,108.46Zm18.88,24.36q-7.35-8-18.88-8t-18.89,8q-7.35,8-7.35,20.59,0,12.35,7.35,20.29t18.89,8q11.52,0,18.88-8t7.35-20.29Q655.13,140.83,647.78,132.82Z"/><path class="cls-6" d="M713.56,108.46q18.47,0,30.24,9.06l-9.3,14.83a32.85,32.85,0,0,0-21.06-7.53q-12.35,0-12.35,9.41a6.75,6.75,0,0,0,3.35,5.94q3.36,2.18,12.89,3.94,16.23,3.42,22.82,9.59t6.59,16.53q0,12.6-8.76,20.18T714,198q-20.12,0-33.53-11.53l9.77-14.94a31.41,31.41,0,0,0,11.06,7.35,34.73,34.73,0,0,0,13.29,2.77q6.82,0,10.53-2.53a8.25,8.25,0,0,0,3.71-7.24,7.15,7.15,0,0,0-3.65-6.24c-2.43-1.56-6.79-2.94-13.06-4.11q-16-3.42-22.53-9.89t-6.53-16.59q0-11.76,8.35-19.17T713.56,108.46Z"/></g></g></svg>