<svg xmlns="http://www.w3.org/2000/svg" viewBox="0 0 369.67 398"><defs><style>.cls-1{fill:#220e2c;}.cls-2{fill:#3c194b;}.cls-3{fill:#2b1037;}.cls-4{fill:#721c54;}.cls-5{fill:#501648;}.cls-6{fill:#21082c;}</style></defs><g id="Layer_2" data-name="Layer 2"><g id="Layer_1-2" data-name="Layer 1"><polygon class="cls-1" points="238.86 0 78.21 186.1 131.95 248.97 291.46 62.37 238.86 0"/><polygon class="cls-2" points="131.95 248.97 237.72 248.97 291.46 186.1 78.21 186.1 131.95 248.97"/><polygon class="cls-3" points="129.98 186.1 291.46 186.1 237.72 248.97 129.98 186.1"/><polygon class="cls-2" points="291.46 62.37 78.21 62.37 130.81 0 238.86 0 291.46 62.37"/><polygon class="cls-3" points="239.69 62.37 78.21 62.37 130.81 0 239.69 62.37"/><polygon class="cls-4" points="130.81 0 291.46 186.1 237.72 248.97 78.21 62.37 130.81 0"/><polygon class="cls-5" points="184.84 187.1 238.31 124.54 184.84 62.59 131.36 124.54 184.84 187.1"/><polygon class="cls-6" points="294.37 299.18 283.58 299.18 274.73 313.29 280.75 322.28 294.37 299.18"/><polygon class="cls-6" points="265.35 299.23 256.22 299.23 256.22 342.79 265.35 328.25 265.35 299.23"/><polygon class="cls-4" points="274.73 313.29 265.35 328.25 256.22 342.79 268.69 342.74 275.48 331.22 283.58 342.74 294.37 342.74 274.73 313.29 274.73 313.29"/><path class="cls-6" d="M16.63,298.41q9.29,0,15.21,4.56l-4.68,7.46a16.48,16.48,0,0,0-10.59-3.79q-6.21,0-6.21,4.73a3.39,3.39,0,0,0,1.68,3q1.7,1.09,6.48,2,8.18,1.73,11.48,4.83a10.85,10.85,0,0,1,3.32,8.31,12.75,12.75,0,0,1-4.41,10.15q-4.41,3.81-12,3.82-10.13,0-16.87-5.8l4.91-7.52a16,16,0,0,0,5.56,3.7,17.4,17.4,0,0,0,6.69,1.39,9.35,9.35,0,0,0,5.3-1.27,4.15,4.15,0,0,0,1.86-3.64,3.6,3.6,0,0,0-1.83-3.14,20.24,20.24,0,0,0-6.57-2.07q-8.05-1.71-11.33-5a11.24,11.24,0,0,1-3.29-8.34,12.31,12.31,0,0,1,4.2-9.65Q9.7,298.42,16.63,298.41Z"/><path class="cls-6" d="M74.28,299.18,61.44,320.07l15.8,22.61H66.41l-10-14.57-9.31,14.57H40.19v-43.5h9.06v25.39l14.44-25.39Z"/><path class="cls-6" d="M120,299.18l-15.8,25.69v17.81h-9V325L79.28,299.18H89.76L99.64,316l9.88-16.85Z"/><path class="cls-6" d="M142.47,299.18a16.43,16.43,0,0,1,11,3.79,12.8,12.8,0,0,1,4.47,10.3,13.19,13.19,0,0,1-8,12.54l10.12,16.87H149.52l-9.13-15.33h-6v15.33h-9v-43.5Zm-.83,7.81h-7.21v12.55h7.21a7.73,7.73,0,0,0,5.18-1.63,6.52,6.52,0,0,0,0-9.26A7.69,7.69,0,0,0,141.64,307Z"/><path class="cls-6" d="M185.31,298.41a21.63,21.63,0,0,1,16,6.42A22,22,0,0,1,207.68,321,22.35,22.35,0,1,1,163,321q0-9.82,6.33-16.22A21.56,21.56,0,0,1,185.31,298.41Zm9.5,12.25a13.24,13.24,0,0,0-19,0,14.76,14.76,0,0,0-3.7,10.36,14.48,14.48,0,0,0,3.7,10.21,13.3,13.3,0,0,0,19,0,14.48,14.48,0,0,0,3.7-10.21A14.76,14.76,0,0,0,194.81,310.66Z"/><path class="cls-6" d="M234.91,298.41a22.24,22.24,0,0,1,8.76,1.6,21.93,21.93,0,0,1,7,4.91L245,311.49a12.77,12.77,0,0,0-10.06-4.85,12.34,12.34,0,0,0-9.56,4,16.39,16.39,0,0,0,0,20.57,12.3,12.3,0,0,0,9.56,4,12.74,12.74,0,0,0,10.18-5l5.62,6.57q-6,6.63-15.8,6.63t-16-6.42a23.84,23.84,0,0,1,0-32.23Q225.16,298.41,234.91,298.41Z"/><polygon class="cls-6" points="299.33 299.18 299.33 342.68 327.92 342.68 327.92 334.45 308.39 334.45 308.39 324.45 324.9 324.45 324.9 316.82 308.39 316.82 308.39 307.41 346.53 307.11 346.53 342.68 355.53 342.68 355.53 307.11 369.67 307.11 369.67 299.18 299.33 299.18"/><path class="cls-6" d="M68.79,353q9.28,0,15.21,4.55L79.33,365a16.58,16.58,0,0,0-10.6-3.79q-6.21,0-6.21,4.74a3.36,3.36,0,0,0,1.69,3q1.68,1.11,6.48,2,8.16,1.71,11.48,4.82A10.88,10.88,0,0,1,85.48,384a12.74,12.74,0,0,1-4.41,10.15Q76.66,398,69,398q-10.12,0-16.87-5.8l4.91-7.51a15.91,15.91,0,0,0,5.57,3.69,17.36,17.36,0,0,0,6.68,1.39,9.33,9.33,0,0,0,5.3-1.27,4.15,4.15,0,0,0,1.86-3.64,3.59,3.59,0,0,0-1.83-3.13,19.82,19.82,0,0,0-6.57-2.07q-8-1.73-11.33-5a11.24,11.24,0,0,1-3.29-8.34,12.3,12.3,0,0,1,4.21-9.65Q61.87,353,68.79,353Z"/><path class="cls-6" d="M156.28,353.74V381a9.56,9.56,0,0,1-2,6.39,7.1,7.1,0,0,1-5.74,2.36,7,7,0,0,1-5.74-2.36,9.75,9.75,0,0,1-1.95-6.39V353.74H89.08v7.93h14.09v35.56h9V361.67h19.62v19.94q0,7.58,4.35,12t12.4,4.41q8.06,0,12.4-4.41t4.35-12V353.74Z"/><path class="cls-6" d="M188.41,353.74q11.19,0,17.49,5.74t6.3,16q0,10.31-6.27,16t-17.52,5.74H174.56V353.74Zm-.3,8.28h-4.49v27h4.49c4.86,0,8.55-1.17,11.1-3.52s3.82-5.67,3.82-10-1.28-7.67-3.82-10S193,362,188.11,362Z"/><path class="cls-6" d="M228.51,353.74v43.49h-9V353.74Z"/><path class="cls-6" d="M258.24,353a21.65,21.65,0,0,1,16,6.42,22,22,0,0,1,6.39,16.18,22.35,22.35,0,1,1-44.68,0q0-9.82,6.33-16.21A21.56,21.56,0,0,1,258.24,353Zm9.5,12.25a13.21,13.21,0,0,0-19,0,14.67,14.67,0,0,0-3.7,10.35,14.42,14.42,0,0,0,3.7,10.21,13.3,13.3,0,0,0,19,0,14.46,14.46,0,0,0,3.69-10.21A14.71,14.71,0,0,0,267.74,365.22Z"/><path class="cls-6" d="M300.82,353q9.29,0,15.21,4.55L311.35,365a16.53,16.53,0,0,0-10.59-3.79q-6.21,0-6.21,4.74a3.38,3.38,0,0,0,1.68,3q1.69,1.11,6.48,2,8.18,1.71,11.48,4.82a10.85,10.85,0,0,1,3.32,8.31,12.74,12.74,0,0,1-4.41,10.15q-4.41,3.82-12,3.82-10.12,0-16.87-5.8l4.91-7.51a15.91,15.91,0,0,0,5.57,3.69,17.32,17.32,0,0,0,6.68,1.39,9.33,9.33,0,0,0,5.3-1.27,4.15,4.15,0,0,0,1.86-3.64,3.59,3.59,0,0,0-1.83-3.13,19.82,19.82,0,0,0-6.57-2.07q-8.06-1.73-11.33-5a11.24,11.24,0,0,1-3.29-8.34,12.3,12.3,0,0,1,4.21-9.65Q293.9,353,300.82,353Z"/></g></g></svg>